<?xml version="1.0" encoding="UTF-8"?>
<svg id="_レイヤー_1" data-name="レイヤー 1" xmlns="http://www.w3.org/2000/svg" viewBox="0 0 346.13 67.45">
  <defs>
    <style>
      .cls-1 {
        fill: #fff;
      }
    </style>
  </defs>
  <g>
    <polygon class="cls-1" points="281.45 16.85 296.7 47.13 311.53 17.47 311.53 1 280.22 1 280.22 14.4 281.45 16.85 281.45 16.85"/>
    <polygon class="cls-1" points="314.83 1 314.83 17.47 329.65 47.13 344.9 16.85 344.9 16.85 346.13 14.4 346.13 1 314.83 1"/>
    <polygon class="cls-1" points="346.13 66.9 346.13 20.66 322.96 67.02 346.13 66.9"/>
    <polygon class="cls-1" points="313.18 20.77 296.7 53.72 287.24 34.56 287.24 34.56 280.22 20.54 280.22 66.9 319.66 66.9 328.12 50.43 313.18 20.77"/>
  </g>
  <path class="cls-1" d="M39.18,40.26h-8.88l-6.3-26.66h-.13l-6.3,26.66h-8.88L0,1h7.85l5.85,30.5h.26L20.07,3.83h8.11l6.3,27.66h.13L40.46,1h7.46l-8.75,39.26Z"/>
  <path class="cls-1" d="M65.14,8.59c-1.44-1.72-3.33-2.61-5.43-2.61-2.5,0-4.99,1.61-4.99,5.49,0,3.33,2.22,4.82,5.43,6.43,3.88,1.94,8.43,4.77,8.43,11.42,0,7.65-5.16,11.92-11.26,11.92-4.33,0-8.26-1.88-10.48-4.49l3.6-4.88c1.72,2.05,4.27,3.33,6.76,3.33,2.77,0,4.88-2.05,4.88-5.49s-2.44-5.1-5.88-6.82c-4.21-2.11-7.87-4.77-7.87-11.2,0-8.1,5.71-11.7,11.15-11.7,3.94,0,7.21,1.33,9.32,3.83l-3.66,4.77Z"/>
  <path class="cls-1" d="M86.59,24.51h-4.66v15.75h-6.54V1h10.87c5.1,0,11.09,2.72,11.09,11.59,0,8.04-5.21,11.92-10.76,11.92ZM85.71,6.6h-3.77v12.48h3.77c3.11,0,5.32-2.22,5.32-6.43s-2.22-6.04-5.32-6.04Z"/>
  <path class="cls-1" d="M115.31,40.26l-1.94-8.32h-10.31l-2,8.32h-6.65L104.17,1h8.48l9.59,39.26h-6.93ZM108.38,7.26h-.22l-4.27,19.46h8.65l-4.16-19.46Z"/>
  <path class="cls-1" d="M139.84,40.26l-6.1-16.75h-3.71v16.75h-6.43V1h11.2c6.49,0,11.15,3.38,11.15,11.2,0,6.1-3.38,9.21-6.15,9.98l7.04,18.08h-6.99ZM133.8,6.54h-3.77v12.09h3.77c3.22,0,5.6-2.05,5.6-6.1,0-4.77-2.94-5.99-5.6-5.99Z"/>
  <path class="cls-1" d="M161.27,6.65v33.6h-6.54V6.65h-7.38V1h21.29v5.66h-7.38Z"/>
  <path class="cls-1" d="M188.77,40.26l-11.15-27.73h-.17l.11,27.73h-5.99V1h7.6l11.04,27.89h.17l-.06-27.89h5.77v39.26h-7.32Z"/>
  <path class="cls-1" d="M200.12,40.26V1h17.58v5.88h-11.2v10.42h10.37v5.43h-10.37v11.59h11.76v5.93h-18.13Z"/>
  <path class="cls-1" d="M237.82,40.26l-6.1-16.75h-3.71v16.75h-6.43V1h11.2c6.49,0,11.15,3.38,11.15,11.2,0,6.1-3.38,9.21-6.15,9.98l7.04,18.08h-6.99ZM231.78,6.54h-3.77v12.09h3.77c3.22,0,5.6-2.05,5.6-6.1,0-4.77-2.94-5.99-5.6-5.99Z"/>
  <path class="cls-1" d="M263.61,8.59c-1.44-1.72-3.33-2.61-5.43-2.61-2.5,0-4.99,1.61-4.99,5.49,0,3.33,2.22,4.82,5.43,6.43,3.88,1.94,8.43,4.77,8.43,11.42,0,7.65-5.16,11.92-11.26,11.92-4.33,0-8.26-1.88-10.48-4.49l3.6-4.88c1.72,2.05,4.27,3.33,6.76,3.33,2.77,0,4.88-2.05,4.88-5.49s-2.44-5.1-5.88-6.82c-4.21-2.11-7.87-4.77-7.87-11.2,0-8.1,5.71-11.7,11.15-11.7,3.94,0,7.21,1.33,9.32,3.83l-3.66,4.77Z"/>
  <g>
    <path class="cls-1" d="M133.99,66.8v-21.82h4.96v21.82h-4.96Z"/>
    <path class="cls-1" d="M151.93,66.8l-5.05-13.28h-.09l.12,13.28h-4.41v-21.82h5.42l5.02,13.47h.09l-.09-13.47h4.25v21.82h-5.27Z"/>
    <path class="cls-1" d="M166.67,66.8h-6.13v-21.82h6.13c6.26,0,9.06,4.25,9.06,10.97s-2.83,10.85-9.06,10.85ZM166.73,49.29h-1.2v13.19h1.2c2.37,0,4.04-2.31,4.04-6.53s-1.66-6.66-4.04-6.66Z"/>
    <path class="cls-1" d="M185.93,67.39c-5.18,0-8.38-4.62-8.38-11.56s3.14-11.44,8.38-11.44,8.38,4.53,8.38,11.44-3.21,11.56-8.38,11.56ZM185.93,49.17c-2.25,0-3.33,2.87-3.33,6.66s1.08,6.72,3.33,6.72,3.33-2.93,3.33-6.72-1.11-6.66-3.33-6.66Z"/>
    <path class="cls-1" d="M205.94,66.8l-5.05-13.28h-.09l.12,13.28h-4.41v-21.82h5.42l5.02,13.47h.09l-.09-13.47h4.25v21.82h-5.27Z"/>
    <path class="cls-1" d="M214.29,66.8v-21.82h10.54v4.35h-5.83v4.28h5.36v4.07h-5.36v4.72h6.2v4.41h-10.91Z"/>
    <path class="cls-1" d="M237.51,50.22c-.74-.86-1.79-1.36-2.84-1.36-1.11,0-2.16.65-2.16,2.25,0,1.36.92,1.94,2.68,2.84,2,.99,4.62,2.56,4.62,6.35,0,4.72-3.21,7.09-6.78,7.09-2.62,0-4.9-1.14-6.2-2.47l2.53-3.7c.92.99,2.25,1.63,3.51,1.63s2.13-.83,2.13-2.22-1.02-2.13-2.9-3.05c-2.37-1.17-4.35-2.65-4.35-6.29,0-4.84,3.54-6.9,6.72-6.9,2.37,0,4.32.83,5.58,2.19l-2.56,3.64Z"/>
    <path class="cls-1" d="M242.53,66.8v-21.82h4.96v21.82h-4.96Z"/>
    <path class="cls-1" d="M261.89,66.8l-.89-3.98h-4.9l-.89,3.98h-4.93l5.3-21.82h6.2l5.27,21.82h-5.15ZM258.62,49.73h-.12l-1.85,9.28h3.73l-1.76-9.28Z"/>
  </g>
</svg>