<?xml version="1.0" encoding="UTF-8"?>
<svg id="_レイヤー_1" data-name="レイヤー 1" xmlns="http://www.w3.org/2000/svg" viewBox="0 0 131.81 116.93">
  <defs>
    <style>
      .cls-1 {
        fill: #fff;
      }
    </style>
  </defs>
  <g>
    <path class="cls-1" d="M37.6,113.56v-9.53h2.17v9.53h-2.17Z"/>
    <path class="cls-1" d="M45.35,113.56l-2.21-5.8h-.04l.05,5.8h-1.92v-9.53h2.37l2.19,5.88h.04l-.04-5.88h1.86v9.53h-2.3Z"/>
    <path class="cls-1" d="M51.7,113.56h-2.68v-9.53h2.68c2.73,0,3.96,1.86,3.96,4.79s-1.24,4.74-3.96,4.74ZM51.73,105.92h-.52v5.76h.52c1.04,0,1.76-1.01,1.76-2.85s-.73-2.91-1.76-2.91Z"/>
    <path class="cls-1" d="M60.04,113.82c-2.26,0-3.66-2.02-3.66-5.05s1.37-4.99,3.66-4.99,3.66,1.98,3.66,4.99-1.4,5.05-3.66,5.05ZM60.04,105.86c-.98,0-1.45,1.25-1.45,2.91s.47,2.93,1.45,2.93,1.45-1.28,1.45-2.93-.48-2.91-1.45-2.91Z"/>
    <path class="cls-1" d="M68.7,113.56l-2.21-5.8h-.04l.05,5.8h-1.92v-9.53h2.37l2.19,5.88h.04l-.04-5.88h1.86v9.53h-2.3Z"/>
    <path class="cls-1" d="M72.27,113.56v-9.53h4.6v1.9h-2.54v1.87h2.34v1.78h-2.34v2.06h2.71v1.92h-4.76Z"/>
    <path class="cls-1" d="M82.32,106.32c-.32-.38-.78-.59-1.24-.59-.48,0-.94.28-.94.98,0,.59.4.85,1.17,1.24.88.43,2.02,1.12,2.02,2.77,0,2.06-1.4,3.1-2.96,3.1-1.14,0-2.14-.5-2.71-1.08l1.1-1.62c.4.43.98.71,1.53.71s.93-.36.93-.97-.44-.93-1.27-1.33c-1.04-.51-1.9-1.16-1.9-2.75,0-2.11,1.55-3.01,2.93-3.01,1.04,0,1.88.36,2.44.96l-1.12,1.59Z"/>
    <path class="cls-1" d="M84.44,113.56v-9.53h2.17v9.53h-2.17Z"/>
    <path class="cls-1" d="M92.81,113.56l-.39-1.74h-2.14l-.39,1.74h-2.15l2.31-9.53h2.71l2.3,9.53h-2.25ZM91.38,106.1h-.05l-.81,4.05h1.63l-.77-4.05Z"/>
  </g>
  <g>
    <polygon class="cls-1" points="34.18 15.86 49.43 46.13 64.26 16.48 64.26 0 32.95 0 32.95 13.4 34.18 15.86 34.18 15.86"/>
    <polygon class="cls-1" points="67.55 0 67.55 16.48 82.38 46.13 97.63 15.86 97.63 15.86 98.86 13.4 98.86 0 67.55 0"/>
    <polygon class="cls-1" points="98.86 65.91 98.86 19.66 75.68 66.02 98.86 65.91"/>
    <polygon class="cls-1" points="65.91 19.77 49.43 52.72 39.96 33.57 39.96 33.57 32.95 19.54 32.95 65.91 72.39 65.91 80.85 49.43 65.91 19.77"/>
  </g>
  <g>
    <polygon class="cls-1" points="19.96 79.04 17.07 94.08 17.01 94.08 13.9 80.44 9.9 80.44 6.88 94.08 6.76 94.08 3.87 79.04 0 79.04 4.28 98.4 8.66 98.4 11.77 85.25 11.83 85.25 14.94 98.4 19.32 98.4 23.64 79.04 19.96 79.04"/>
    <path class="cls-1" d="M29.45,81.5c1.04,0,1.97.44,2.68,1.29l1.8-2.35c-1.04-1.23-2.65-1.89-4.59-1.89-2.68,0-5.5,1.78-5.5,5.77,0,3.17,1.81,4.49,3.88,5.52,1.7.85,2.9,1.7,2.9,3.36s-1.04,2.71-2.41,2.71c-1.23,0-2.49-.63-3.34-1.64l-1.78,2.41c1.09,1.29,3.04,2.21,5.17,2.21,3.01,0,5.55-2.11,5.55-5.88,0-3.28-2.24-4.68-4.16-5.63-1.59-.79-2.68-1.53-2.68-3.17,0-1.91,1.23-2.71,2.46-2.71Z"/>
    <path class="cls-1" d="M42.54,79.04h-5.36v19.36h3.23v-7.77h2.3c2.73,0,5.31-1.91,5.31-5.88,0-4.38-2.95-5.72-5.47-5.72ZM42.27,87.96h-1.86v-6.15h1.86c1.53,0,2.63.93,2.63,2.98s-1.09,3.17-2.63,3.17Z"/>
    <path class="cls-1" d="M51.37,79.04l-4.81,19.36h3.28l.98-4.1h5.09l.96,4.1h3.42l-4.73-19.36h-4.18ZM51.24,91.73l2.11-9.6h.11l2.05,9.6h-4.27Z"/>
    <path class="cls-1" d="M71.97,84.57c0-3.86-2.3-5.52-5.5-5.52h-5.52v19.36h3.17v-8.26h1.83l3.01,8.26h3.45l-3.47-8.92c1.37-.38,3.04-1.91,3.04-4.92ZM65.99,87.74h-1.86v-5.96h1.86c1.31,0,2.76.6,2.76,2.95,0,2-1.18,3.01-2.76,3.01Z"/>
    <polygon class="cls-1" points="72.67 81.83 76.31 81.83 76.31 98.4 79.53 98.4 79.53 81.83 83.17 81.83 83.17 79.04 72.67 79.04 72.67 81.83"/>
    <polygon class="cls-1" points="96.71 79.04 93.87 79.04 93.89 92.8 93.81 92.8 88.37 79.04 84.62 79.04 84.62 98.4 87.58 98.4 87.52 84.73 87.6 84.73 93.1 98.4 96.71 98.4 96.71 79.04"/>
    <polygon class="cls-1" points="107.64 95.48 101.84 95.48 101.84 89.76 106.95 89.76 106.95 87.08 101.84 87.08 101.84 81.94 107.36 81.94 107.36 79.04 98.69 79.04 98.69 98.4 107.64 98.4 107.64 95.48"/>
    <path class="cls-1" d="M117.29,98.4h3.45l-3.47-8.92c1.37-.38,3.04-1.91,3.04-4.92,0-3.86-2.3-5.52-5.5-5.52h-5.52v19.36h3.17v-8.26h1.83l3.01,8.26ZM112.45,81.78h1.86c1.31,0,2.76.6,2.76,2.95,0,2-1.18,3.01-2.76,3.01h-1.86v-5.96Z"/>
    <path class="cls-1" d="M127.54,87.38c-1.59-.79-2.68-1.53-2.68-3.17,0-1.91,1.23-2.71,2.46-2.71,1.04,0,1.97.44,2.68,1.29l1.8-2.35c-1.04-1.23-2.65-1.89-4.59-1.89-2.68,0-5.5,1.78-5.5,5.77,0,3.17,1.81,4.49,3.88,5.52,1.7.85,2.9,1.7,2.9,3.36s-1.04,2.71-2.41,2.71c-1.23,0-2.49-.63-3.34-1.64l-1.78,2.41c1.09,1.29,3.04,2.21,5.17,2.21,3.01,0,5.55-2.11,5.55-5.88,0-3.28-2.24-4.68-4.16-5.63Z"/>
  </g>
</svg>