<?xml version="1.0" encoding="UTF-8"?>
<svg id="logomark" xmlns="http://www.w3.org/2000/svg" viewBox="0 0 136.06 113.39">
  <defs>
    <style>
      .cls-1 {
        fill: #251d1b;
      }

      .cls-2 {
        fill: #466eb3;
      }
    </style>
  </defs>
  <g>
    <polygon class="cls-2" points="35.78 16.12 51.28 46.9 66.36 16.75 66.36 0 34.53 0 34.53 13.62 35.78 16.12 35.78 16.12"/>
    <polygon class="cls-2" points="69.71 0 69.71 16.75 84.78 46.9 100.29 16.12 100.29 16.12 101.53 13.62 101.53 0 69.71 0"/>
    <polygon class="cls-2" points="101.53 67.01 101.53 19.99 77.97 67.13 101.53 67.01"/>
    <polygon class="cls-2" points="68.03 20.1 51.28 53.61 41.66 34.13 41.66 34.13 34.53 19.87 34.53 67.01 74.62 67.01 83.22 50.26 68.03 20.1"/>
  </g>
  <g>
    <path class="cls-1" d="M97.73,103.47h-3.08v9.91h2.2v-3.61h.97c1.47,0,2.95-.98,2.95-3.19,0-2.37-1.62-3.11-3.04-3.11ZM97.57,107.95h-.71v-2.59h.71c.62,0,1.11.38,1.11,1.26s-.49,1.33-1.11,1.33Z"/>
    <polygon class="cls-1" points="101.08 105.38 102.9 105.38 102.9 113.39 105.1 113.39 105.1 105.38 106.92 105.38 106.92 103.47 101.08 103.47 101.08 105.38"/>
    <polygon class="cls-1" points="109.93 109.24 112.37 109.24 112.37 107.39 109.93 107.39 109.93 105.45 112.58 105.45 112.58 103.47 107.79 103.47 107.79 113.39 112.75 113.39 112.75 111.38 109.93 111.38 109.93 109.24"/>
    <polygon class="cls-1" points="117.51 103.47 115.24 103.47 115.24 113.39 120.15 113.39 120.15 111.31 117.51 111.31 117.51 103.47"/>
    <polygon class="cls-1" points="119.69 105.38 121.51 105.38 121.51 113.39 123.71 113.39 123.71 105.38 125.53 105.38 125.53 103.47 119.69 103.47 119.69 105.38"/>
    <path class="cls-1" d="M129.28,103.47h-2.79v9.91h2.79c2.83,0,4.12-1.93,4.12-4.93s-1.27-4.99-4.12-4.99ZM129.31,111.43h-.55v-5.99h.55c1.08,0,1.83,1.04,1.83,3.02s-.76,2.97-1.83,2.97Z"/>
    <polygon class="cls-1" points="20.29 80.36 17.35 95.65 17.29 95.65 14.13 81.78 10.06 81.78 7 95.65 6.87 95.65 3.94 80.36 0 80.36 4.35 100.05 8.81 100.05 11.97 86.68 12.03 86.68 15.19 100.05 19.64 100.05 24.03 80.36 20.29 80.36"/>
    <path class="cls-1" d="M30,82.86c1.06,0,2,.44,2.72,1.31l1.84-2.39c-1.06-1.25-2.7-1.92-4.67-1.92-2.72,0-5.59,1.81-5.59,5.87,0,3.23,1.84,4.56,3.95,5.62,1.72.86,2.95,1.72,2.95,3.42s-1.06,2.75-2.45,2.75c-1.25,0-2.53-.64-3.39-1.67l-1.81,2.45c1.11,1.31,3.09,2.25,5.25,2.25,3.06,0,5.64-2.14,5.64-5.98,0-3.34-2.28-4.75-4.23-5.73-1.61-.81-2.72-1.56-2.72-3.23,0-1.95,1.25-2.75,2.5-2.75Z"/>
    <path class="cls-1" d="M43.89,80.36h-5.45v19.69h3.28v-7.9h2.34c2.78,0,5.39-1.95,5.39-5.98,0-4.45-3-5.81-5.56-5.81ZM43.61,89.43h-1.89v-6.26h1.89c1.56,0,2.67.95,2.67,3.03s-1.11,3.23-2.67,3.23Z"/>
    <path class="cls-1" d="M53.15,80.36l-4.89,19.69h3.34l1-4.17h5.17l.97,4.17h3.48l-4.81-19.69h-4.25ZM53.01,93.26l2.14-9.76h.11l2.09,9.76h-4.34Z"/>
    <path class="cls-1" d="M74.09,85.98c0-3.92-2.34-5.62-5.59-5.62h-5.62v19.69h3.23v-8.4h1.86l3.06,8.4h3.5l-3.53-9.06c1.39-.39,3.09-1.95,3.09-5ZM68,89.2h-1.89v-6.06h1.89c1.33,0,2.81.61,2.81,3,0,2.03-1.2,3.06-2.81,3.06Z"/>
    <polygon class="cls-1" points="75.08 83.2 78.78 83.2 78.78 100.05 82.06 100.05 82.06 83.2 85.76 83.2 85.76 80.36 75.08 80.36 75.08 83.2"/>
    <polygon class="cls-1" points="99.81 80.36 96.92 80.36 96.94 94.35 96.86 94.35 91.33 80.36 87.52 80.36 87.52 100.05 90.52 100.05 90.47 86.15 90.55 86.15 96.14 100.05 99.81 100.05 99.81 80.36"/>
    <polygon class="cls-1" points="111.2 97.07 105.31 97.07 105.31 91.26 110.5 91.26 110.5 88.54 105.31 88.54 105.31 83.31 110.92 83.31 110.92 80.36 102.11 80.36 102.11 100.05 111.2 100.05 111.2 97.07"/>
    <path class="cls-1" d="M121.3,100.05h3.5l-3.53-9.06c1.39-.39,3.09-1.95,3.09-5,0-3.92-2.34-5.62-5.59-5.62h-5.62v19.69h3.23v-8.4h1.86l3.06,8.4ZM116.38,83.14h1.89c1.33,0,2.81.61,2.81,3,0,2.03-1.2,3.06-2.81,3.06h-1.89v-6.06Z"/>
    <path class="cls-1" d="M131.73,88.84c-1.61-.81-2.72-1.56-2.72-3.23,0-1.95,1.25-2.75,2.5-2.75,1.06,0,2,.44,2.72,1.31l1.83-2.39c-1.06-1.25-2.7-1.92-4.67-1.92-2.72,0-5.59,1.81-5.59,5.87,0,3.23,1.84,4.56,3.95,5.62,1.72.86,2.95,1.72,2.95,3.42s-1.06,2.75-2.45,2.75c-1.25,0-2.53-.64-3.39-1.67l-1.81,2.45c1.11,1.31,3.09,2.25,5.26,2.25,3.06,0,5.64-2.14,5.64-5.98,0-3.34-2.28-4.75-4.23-5.73Z"/>
  </g>
</svg>