<?xml version="1.0" encoding="UTF-8"?>
<svg id="logomark" xmlns="http://www.w3.org/2000/svg" viewBox="0 0 351.49 68.03">
  <defs>
    <style>
      .cls-1 {
        fill: #fff;
      }
    </style>
  </defs>
  <g>
    <polygon class="cls-1" points="1.25 17.11 16.73 47.84 31.78 17.74 31.78 1.01 0 1.01 0 14.62 1.25 17.11 1.25 17.11"/>
    <polygon class="cls-1" points="35.12 1.01 35.12 17.74 50.17 47.84 65.65 17.11 65.65 17.11 66.9 14.62 66.9 1.01 35.12 1.01"/>
    <polygon class="cls-1" points="66.9 67.91 66.9 20.97 43.38 68.03 66.9 67.91"/>
    <polygon class="cls-1" points="33.45 21.08 16.73 54.53 7.12 35.09 7.12 35.09 0 20.85 0 67.91 40.03 67.91 48.62 51.19 33.45 21.08"/>
  </g>
  <g>
    <path class="cls-1" d="M279.24,60.55h-1.96v7.31h-4.45v-20.07h6.24c2.86,0,6.15,1.5,6.15,6.29,0,4.48-3,6.46-5.98,6.46ZM278.73,51.62h-1.45v5.24h1.45c1.25,0,2.24-.96,2.24-2.69s-.99-2.55-2.24-2.55Z"/>
    <path class="cls-1" d="M293.98,51.65v16.21h-4.45v-16.21h-3.68v-3.86h11.82v3.86h-3.68Z"/>
    <path class="cls-1" d="M299.42,67.87v-20.07h9.69v4h-5.36v3.94h4.93v3.74h-4.93v4.34h5.7v4.05h-10.03Z"/>
    <path class="cls-1" d="M314.5,67.87v-20.07h4.59v15.87h5.36v4.19h-9.95Z"/>
    <path class="cls-1" d="M331.65,51.65v16.21h-4.45v-16.21h-3.68v-3.86h11.82v3.86h-3.69Z"/>
    <path class="cls-1" d="M342.94,67.87h-5.64v-20.07h5.64c5.75,0,8.33,3.91,8.33,10.09s-2.61,9.98-8.33,9.98ZM342.99,51.77h-1.1v12.13h1.1c2.18,0,3.71-2.13,3.71-6.01s-1.53-6.12-3.71-6.12Z"/>
  </g>
  <path class="cls-1" d="M119.82,40.86h-9.01l-6.4-27.07h-.13l-6.4,27.07h-9.01L80.06,1.01h7.97l5.94,30.96h.26l6.2-28.08h8.23l6.4,28.08h.13l5.94-30.96h7.57l-8.88,39.85Z"/>
  <path class="cls-1" d="M146.18,8.72c-1.46-1.75-3.38-2.65-5.52-2.65-2.53,0-5.07,1.63-5.07,5.57,0,3.38,2.25,4.9,5.52,6.53,3.94,1.97,8.56,4.84,8.56,11.6,0,7.77-5.23,12.1-11.43,12.1-4.39,0-8.39-1.91-10.64-4.56l3.66-4.95c1.74,2.08,4.33,3.38,6.87,3.38,2.81,0,4.95-2.08,4.95-5.57s-2.48-5.18-5.97-6.92c-4.28-2.14-7.99-4.84-7.99-11.37,0-8.22,5.8-11.88,11.31-11.88,4,0,7.32,1.35,9.46,3.88l-3.71,4.84Z"/>
  <path class="cls-1" d="M168.1,24.88h-4.73v15.99h-6.64V1.01h11.03c5.18,0,11.26,2.76,11.26,11.76,0,8.16-5.29,12.1-10.92,12.1ZM167.2,6.7h-3.83v12.66h3.83c3.15,0,5.4-2.25,5.4-6.53s-2.25-6.14-5.4-6.14Z"/>
  <path class="cls-1" d="M197.25,40.86l-1.97-8.44h-10.47l-2.03,8.44h-6.75L185.94,1.01h8.61l9.74,39.85h-7.04ZM190.21,7.37h-.23l-4.33,19.76h8.78l-4.22-19.76Z"/>
  <path class="cls-1" d="M222.15,40.86l-6.19-17h-3.77v17h-6.53V1.01h11.37c6.59,0,11.31,3.43,11.31,11.37,0,6.19-3.43,9.34-6.25,10.13l7.15,18.35h-7.09ZM216.01,6.64h-3.83v12.27h3.83c3.26,0,5.69-2.08,5.69-6.19,0-4.84-2.98-6.08-5.69-6.08Z"/>
  <path class="cls-1" d="M243.9,6.75v34.11h-6.64V6.75h-7.49V1.01h21.61v5.74h-7.49Z"/>
  <path class="cls-1" d="M271.82,40.86l-11.31-28.14h-.17l.11,28.14h-6.08V1.01h7.71l11.2,28.31h.17l-.06-28.31h5.85v39.85h-7.43Z"/>
  <path class="cls-1" d="M283.33,40.86V1.01h17.84v5.97h-11.37v10.58h10.53v5.52h-10.53v11.76h11.93v6.02h-18.41Z"/>
  <path class="cls-1" d="M321.61,40.86l-6.19-17h-3.77v17h-6.53V1.01h11.37c6.59,0,11.31,3.43,11.31,11.37,0,6.19-3.43,9.34-6.25,10.13l7.15,18.35h-7.09ZM315.47,6.64h-3.83v12.27h3.83c3.27,0,5.69-2.08,5.69-6.19,0-4.84-2.98-6.08-5.69-6.08Z"/>
  <path class="cls-1" d="M347.78,8.72c-1.46-1.75-3.38-2.65-5.52-2.65-2.53,0-5.07,1.63-5.07,5.57,0,3.38,2.25,4.9,5.52,6.53,3.94,1.97,8.56,4.84,8.56,11.6,0,7.77-5.23,12.1-11.43,12.1-4.39,0-8.39-1.91-10.64-4.56l3.66-4.95c1.74,2.08,4.33,3.38,6.87,3.38,2.81,0,4.95-2.08,4.95-5.57s-2.48-5.18-5.97-6.92c-4.28-2.14-7.99-4.84-7.99-11.37,0-8.22,5.8-11.88,11.31-11.88,4,0,7.32,1.35,9.46,3.88l-3.71,4.84Z"/>
</svg>