<?xml version="1.0" encoding="UTF-8"?>
<svg id="logomark" xmlns="http://www.w3.org/2000/svg" viewBox="0 0 345.83 39.69">
  <defs>
    <style>
      .cls-1 {
        fill: #fff;
      }
    </style>
  </defs>
  <g>
    <path class="cls-1" d="M277.56,13.05h-1.85v6.93h-4.22V.96h5.91c2.71,0,5.83,1.42,5.83,5.96,0,4.24-2.85,6.12-5.67,6.12ZM277.08,4.59h-1.37v4.97h1.37c1.18,0,2.12-.91,2.12-2.55s-.94-2.42-2.12-2.42Z"/>
    <path class="cls-1" d="M291.53,4.61v15.37h-4.22V4.61h-3.49V.96h11.2v3.65h-3.49Z"/>
    <path class="cls-1" d="M296.69,19.98V.96h9.19v3.79h-5.08v3.73h4.67v3.54h-4.67v4.11h5.4v3.84h-9.51Z"/>
    <path class="cls-1" d="M310.98,19.98V.96h4.35v15.04h5.08v3.98h-9.43Z"/>
    <path class="cls-1" d="M327.24,4.61v15.37h-4.22V4.61h-3.49V.96h11.2v3.65h-3.49Z"/>
    <path class="cls-1" d="M337.93,19.98h-5.35V.96h5.35c5.45,0,7.9,3.71,7.9,9.56s-2.47,9.46-7.9,9.46ZM337.98,4.72h-1.05v11.5h1.05c2.07,0,3.52-2.02,3.52-5.7s-1.45-5.8-3.52-5.8Z"/>
  </g>
  <path class="cls-1" d="M37.69,38.72h-8.54l-6.06-25.65h-.12l-6.06,25.65h-8.54L0,.96h7.55l5.63,29.34h.25L19.31,3.69h7.8l6.06,26.61h.12L38.92.96h7.18l-8.42,37.76Z"/>
  <path class="cls-1" d="M62.66,8.27c-1.39-1.65-3.2-2.51-5.23-2.51-2.4,0-4.8,1.55-4.8,5.28,0,3.2,2.13,4.64,5.23,6.19,3.73,1.87,8.11,4.59,8.11,10.99,0,7.36-4.96,11.47-10.83,11.47-4.16,0-7.95-1.81-10.08-4.32l3.47-4.69c1.65,1.97,4.11,3.2,6.51,3.2,2.67,0,4.69-1.97,4.69-5.28s-2.35-4.91-5.65-6.56c-4.05-2.03-7.57-4.59-7.57-10.77,0-7.79,5.49-11.25,10.72-11.25,3.79,0,6.93,1.28,8.96,3.68l-3.52,4.59Z"/>
  <path class="cls-1" d="M85.23,23.58h-4.48v15.15h-6.29V.96h10.45c4.91,0,10.67,2.61,10.67,11.15,0,7.73-5.01,11.47-10.35,11.47ZM84.38,6.35h-3.63v12h3.63c2.99,0,5.12-2.13,5.12-6.19s-2.13-5.81-5.12-5.81Z"/>
  <path class="cls-1" d="M112.85,38.72l-1.87-8h-9.92l-1.92,8h-6.4L102.13.96h8.16l9.23,37.76h-6.67ZM106.19,6.99h-.21l-4.11,18.72h8.32l-4-18.72Z"/>
  <path class="cls-1" d="M136.45,38.72l-5.87-16.11h-3.57v16.11h-6.19V.96h10.77c6.24,0,10.72,3.25,10.72,10.77,0,5.87-3.25,8.85-5.92,9.6l6.77,17.39h-6.72ZM130.63,6.29h-3.63v11.63h3.63c3.09,0,5.39-1.97,5.39-5.87,0-4.59-2.83-5.76-5.39-5.76Z"/>
  <path class="cls-1" d="M157.06,6.4v32.32h-6.29V6.4h-7.09V.96h20.48v5.44h-7.09Z"/>
  <path class="cls-1" d="M183.52,38.72l-10.72-26.67h-.16l.11,26.67h-5.76V.96h7.31l10.62,26.83h.16l-.05-26.83h5.55v37.76h-7.04Z"/>
  <path class="cls-1" d="M194.43,38.72V.96h16.91v5.65h-10.77v10.03h9.97v5.23h-9.97v11.15h11.31v5.71h-17.44Z"/>
  <path class="cls-1" d="M230.7,38.72l-5.87-16.11h-3.57v16.11h-6.19V.96h10.77c6.24,0,10.72,3.25,10.72,10.77,0,5.87-3.25,8.85-5.92,9.6l6.77,17.39h-6.72ZM224.89,6.29h-3.63v11.63h3.63c3.09,0,5.39-1.97,5.39-5.87,0-4.59-2.83-5.76-5.39-5.76Z"/>
  <path class="cls-1" d="M255.51,8.27c-1.39-1.65-3.2-2.51-5.23-2.51-2.4,0-4.8,1.55-4.8,5.28,0,3.2,2.13,4.64,5.23,6.19,3.73,1.87,8.11,4.59,8.11,10.99,0,7.36-4.96,11.47-10.83,11.47-4.16,0-7.95-1.81-10.08-4.32l3.47-4.69c1.65,1.97,4.11,3.2,6.51,3.2,2.67,0,4.69-1.97,4.69-5.28s-2.35-4.91-5.65-6.56c-4.05-2.03-7.57-4.59-7.57-10.77,0-7.79,5.49-11.25,10.72-11.25,3.79,0,6.93,1.28,8.96,3.68l-3.52,4.59Z"/>
</svg>